<svg xmlns="http://www.w3.org/2000/svg" viewBox="0 0 26.53 37"><title>Hospital-2</title><g id="Layer_2" data-name="Layer 2"><g id="Layer_1-2" data-name="Layer 1"><path d="M13.27,0C5.94,0,0,6.84,0,15.29,0,26.9,13.27,37,13.27,37S26.53,26.9,26.53,15.29C26.53,6.84,20.59,0,13.27,0Zm0,27.17C7.57,27.17,3,21.85,3,15.29S7.57,3.41,13.27,3.41,23.58,8.72,23.58,15.29,19,27.17,13.27,27.17Z"/><polygon points="15.04 8.64 11.35 8.64 11.35 13.6 7.04 13.6 7.04 17.86 11.35 17.86 11.35 22.82 15.04 22.82 15.04 17.86 19.35 17.86 19.35 13.6 15.04 13.6 15.04 8.64"/></g></g></svg>