<svg xmlns="http://www.w3.org/2000/svg" xmlns:xlink="http://www.w3.org/1999/xlink" version="1.1" x="0px" y="0px" viewBox="0 0 512 640" enable-background="new 0 0 512 512" xml:space="preserve"><g><path d="M256,0C139.167,0,44.467,94.708,44.467,211.533C44.467,372.184,256,512,256,512s211.533-139.816,211.533-300.467   C467.533,94.708,372.833,0,256,0z M256,375.941c-90.8,0-164.4-73.6-164.4-164.408c0-90.8,73.601-164.408,164.4-164.408   s164.417,73.608,164.417,164.408C420.417,302.342,346.8,375.941,256,375.941z"/><polygon points="284.308,119.533 225.433,119.533 225.433,188.217 156.741,188.217 156.741,247.1 225.433,247.1 225.433,315.8    284.308,315.8 284.308,247.1 353.009,247.1 353.009,188.217 284.308,188.217  "/></g><text x="0" y="527" fill="#000000" font-size="5px" font-weight="bold" font-family="'Helvetica Neue', Helvetica, Arial-Unicode, Arial, Sans-serif">Created by lastspark</text><text x="0" y="532" fill="#000000" font-size="5px" font-weight="bold" font-family="'Helvetica Neue', Helvetica, Arial-Unicode, Arial, Sans-serif">from the Noun Project</text></svg>